# xmcd
#
# Track frame offsets:
#	150
#	21645
#	39439
#	64822
#	92327
#	112540
#	135692
#	153695
#
# Disc length: 2393 seconds
#
# Revision: 0
# Processed by: cddbd v1.5.2PL0 Copyright (c) Steve Scherf et al.
# Submitted via: EasyCDDAExtractor 10.0.5.1
#
DISCID=60095708
DTITLE=Nima - Maryame Paaeezi
DYEAR=2005
DGENRE=Pop
TTITLE0=Maryame Paaeezi
TTITLE1=Mitarsam
TTITLE2=Boro Digeh
TTITLE3=Jaaye To Khaali
TTITLE4=Eshghe Interneti
TTITLE5=Yek Kalameh
TTITLE6=Che Khoobeh
TTITLE7=Medly
EXTD=
EXTT0=
EXTT1=
EXTT2=
EXTT3=
EXTT4=
EXTT5=
EXTT6=
EXTT7=
PLAYORDER=
